<?xml version="1.0" standalone="no"?>
<!DOCTYPE svg PUBLIC "-//W3C//DTD SVG 1.1//EN" "http://www.w3.org/Graphics/SVG/1.1/DTD/svg11.dtd" >
<svg xmlns="http://www.w3.org/2000/svg">
<metadata>Generated by IcoMoon</metadata>
<defs>
<font id="xethem2" horiz-adv-x="1024">
<font-face units-per-em="1024" ascent="960" descent="-64" />
<missing-glyph horiz-adv-x="1024" />
<glyph unicode="&#x20;" horiz-adv-x="512" d="" />
<glyph unicode="&#xe900;" glyph-name="sns_twitter" d="M512 106.667c-188.513 0-341.333 152.82-341.333 341.333s152.82 341.333 341.333 341.333c188.513 0 341.333-152.82 341.333-341.333s-152.82-341.333-341.333-341.333zM712.784 554.007c-13.399-6.038-27.622-10.049-42.201-11.903 15.432 9.335 26.963 23.941 32.462 41.119-14.355-8.724-30.089-14.944-46.529-18.395-20.662 22.422-53.012 29.778-81.338 18.496s-46.759-38.866-46.347-69.353c0.042-5.836 0.769-11.647 2.164-17.313-60.181 3.056-116.147 31.828-153.654 78.991-19.727-33.657-9.757-76.859 22.723-98.468-11.711 0.175-23.211 3.142-33.544 8.657-0.132-35.317 24.848-65.747 59.514-72.499l-19.477-3.246h-14.067c9.762-30.069 37.64-50.542 69.253-50.857-26.262-20.498-58.662-31.552-91.976-31.38h-18.395c33.867-21.857 73.31-33.503 113.617-33.544 136.341 0 211.004 112.535 211.004 211.004 0 2.886 0 6.132 0 9.739 14.496 10.678 26.957 23.872 36.79 38.955z" />
<glyph unicode="&#xe901;" glyph-name="sns_facebook" d="M512 106.667c-188.513 0-341.333 152.82-341.333 341.333s152.82 341.333 341.333 341.333c188.513 0 341.333-152.82 341.333-341.333s-152.82-341.333-341.333-341.333zM543.785 553.684h43.99v64.982h-51.713v-0.234c-62.654-2.219-75.495-37.442-76.631-74.432h-0.125v-32.451h-42.664v-63.632h42.664v-170.584h64.299v170.584h52.671l10.177 63.632h-62.828v19.606c0 12.501 8.318 22.528 20.16 22.528z" />
<glyph unicode="&#xe902;" glyph-name="sns_youtube" d="M512 106.667c-188.513 0-341.333 152.82-341.333 341.333s152.82 341.333 341.333 341.333c188.513 0 341.333-152.82 341.333-341.333s-152.82-341.333-341.333-341.333zM688.965 529.35c0 0-3.736 26.794-14.33 38.635-13.707 15.577-29.283 15.577-36.141 16.2-50.471 3.741-126.494 4.364-126.494 4.364s-76.023-0.623-126.494-4.364c-6.853-0.623-22.435-1.242-36.141-16.2-11.213-11.841-14.33-38.635-14.33-38.635s-3.741-31.777-3.741-63.559v-29.288c0-31.777 3.741-62.935 3.741-62.935s3.741-26.794 14.33-38.63c13.707-15.581 31.777-14.958 39.882-16.828 28.66-3.113 122.754-3.736 122.754-3.736s76.023 0 126.494 4.364c6.858 0.619 22.435 1.242 36.141 16.2 10.594 11.836 14.33 38.63 14.33 38.63s3.741 31.782 3.741 62.935v29.288c0 31.782-3.741 63.559-3.741 63.559zM468.382 379.179v135.218l118.394-69.165z" />
<glyph unicode="&#xe903;" glyph-name="sns_instagram" d="M512 106.667c-188.513 0-341.333 152.82-341.333 341.333s152.82 341.333 341.333 341.333c188.513 0 341.333-152.82 341.333-341.333s-152.82-341.333-341.333-341.333zM589.101 544.376c-10.645 0-19.275-8.631-19.275-19.275s8.631-19.275 19.275-19.275c10.645 0 19.275 8.631 19.275 19.275s-8.631 19.275-19.275 19.275zM512 531.526c-46.054 0-83.526-37.471-83.526-83.526s37.473-83.526 83.526-83.526c46.054 0 83.526 37.471 83.526 83.526s-37.473 83.526-83.526 83.526zM640.31 383.076c0-35.005-28.378-63.387-63.387-63.387h-129.848c-35.005 0-63.387 28.381-63.387 63.387v129.848c0 35.005 28.381 63.387 63.387 63.387h129.848c35.009 0 63.387-28.381 63.387-63.387v-129.848zM576.923 608.627h-129.848c-52.77 0-95.703-42.933-95.703-95.703v-129.848c0-52.77 42.933-95.703 95.703-95.703h129.848c52.774 0 95.703 42.933 95.703 95.703v129.848c0 52.77-42.933 95.703-95.703 95.703zM512 396.962c-28.188 0-51.036 22.849-51.036 51.038 0 28.186 22.848 51.038 51.036 51.038s51.036-22.853 51.036-51.038c0-28.189-22.848-51.038-51.036-51.038z" />
<glyph unicode="&#xe904;" glyph-name="sort_feed" d="M170.667 320h298.667v128h-298.667v-128zM170.667 533.333v256h682.667v-256h-682.667zM170.667 320h298.667v-213.333h-298.667v213.333zM554.667 448v-341.333h298.667v341.333h-298.667z" />
<glyph unicode="&#xe905;" glyph-name="sort_list" d="M426.667 789.333h426.667v-170.667h-682.667v170.667h256zM426.667 277.333h426.667v-170.667h-682.667v170.667h256zM426.667 533.333h426.667v-170.667h-682.667v170.667h256z" />
<glyph unicode="&#xe906;" glyph-name="sort_thumb" d="M170.667 362.667h170.667v170.667h-170.667v-170.667zM170.667 106.667h170.667v170.667h-170.667v-170.667zM170.667 618.667h170.667v170.667h-170.667v-170.667zM853.333 362.667v170.667h-426.667v-170.667h426.667zM853.333 106.667v170.667h-426.667v-170.667h426.667zM426.667 618.667h426.667v170.667h-426.667v-170.667z" />
<glyph unicode="&#xe907;" glyph-name="sort_gallery" d="M170.667 618.667v170.667h170.667v-170.667h-170.667zM170.667 362.667v170.667h170.667v-170.667h-170.667zM170.667 106.667v170.667h170.667v-170.667h-170.667zM426.667 618.667v170.667h170.667v-170.667h-170.667zM426.667 362.667v170.667h170.667v-170.667h-170.667zM426.667 106.667v170.667h170.667v-170.667h-170.667zM682.667 618.667v170.667h170.667v-170.667h-170.667zM682.667 362.667v170.667h170.667v-170.667h-170.667zM682.667 106.667v170.667h170.667v-170.667h-170.667z" />
<glyph unicode="&#xe908;" glyph-name="menu" d="M128 277.333v-85.333h768v85.333h-768zM128 490.667v-85.333h768v85.333h-768zM128 704v-85.333h768v85.333h-768z" />
<glyph unicode="&#xe909;" glyph-name="sort" d="M128 192h256v85.333h-256v-85.333zM128 704v-85.333h768v85.333h-768zM128 405.333h512v85.333h-512v-85.333z" />
<glyph unicode="&#xe90a;" glyph-name="search" d="M661.419 362.667h-33.877l-11.776 11.691c41.6 48.512 66.901 111.403 66.901 180.309 0 153.173-124.16 277.333-277.333 277.333s-277.333-124.16-277.333-277.333c0-153.173 124.16-277.333 277.333-277.333 68.907 0 131.755 25.259 180.267 66.816l11.776-11.691v-33.792l213.248-212.949 63.616 63.616-212.821 213.333zM405.333 362.667c-106.069 0-192 85.931-192 192 0 106.027 85.931 192 192 192 106.027 0 192-85.973 192-192 0-106.069-85.973-192-192-192v0z" />
<glyph unicode="&#xe90b;" glyph-name="clear" d="M810.667 686.507l-60.16 60.16-238.507-238.507-238.507 238.507-60.16-60.16 238.507-238.507-238.507-238.507 60.16-60.16 238.507 238.507 238.507-238.507 60.16 60.16-238.507 238.507z" />
<glyph unicode="&#xe90c;" glyph-name="more_vert" d="M512 618.667c46.933 0 85.333 38.4 85.333 85.333s-38.4 85.333-85.333 85.333c-46.933 0-85.333-38.4-85.333-85.333s38.4-85.333 85.333-85.333v0zM512 533.333c-46.933 0-85.333-38.4-85.333-85.333s38.4-85.333 85.333-85.333c46.933 0 85.333 38.4 85.333 85.333s-38.4 85.333-85.333 85.333v0zM512 277.333c-46.933 0-85.333-38.4-85.333-85.333s38.4-85.333 85.333-85.333c46.933 0 85.333 38.4 85.333 85.333s-38.4 85.333-85.333 85.333v0z" />
<glyph unicode="&#xe90d;" glyph-name="navigate_next" d="M426.667 704l-60.16-60.16 195.413-195.84-195.413-195.84 60.16-60.16 256 256z" />
<glyph unicode="&#xe90e;" glyph-name="play_circle" d="M512 789.333c-188.416 0-341.333-152.917-341.333-341.333s152.917-341.333 341.333-341.333c188.416 0 341.333 152.917 341.333 341.333s-152.917 341.333-341.333 341.333v0zM443.733 294.4v307.2l204.8-153.6-204.8-153.6z" />
<glyph unicode="&#xe90f;" d="M1004.382 108.296h-986.761c-9.731 0-17.622 8.019-17.622 17.908v644.662c0 9.889 7.891 17.908 17.622 17.908h986.763c9.731 0 17.622-8.019 17.622-17.908v-644.662c-0.002-9.891-7.893-17.908-17.624-17.908z" />
<glyph unicode="&#xe910;" d="M608.829 597.568c-80.968 54.854-190.328 32.429-244.271-49.712-27.057-40.999-16.059-96.709 24.422-124.138 40.451-27.428 95.094-16.289 122.084 24.854 26.989 41.141 81.668 52.142 122.117 24.858 40.517-27.428 51.414-83.138 24.386-124.138 53.979 82.278 32.159 193.419-48.739 248.275z" />
<glyph unicode="&#xe911;" d="M364.556 547.854c-27.057-40.999-16.059-96.709 24.422-124.138 40.451-27.428 95.094-16.289 122.084 24.854 26.989 41.141 81.668 52.142 122.117 24.858 40.517-27.428 51.414-83.138 24.386-124.138-53.907-82.424-163.231-104.57-244.199-49.714-80.894 54.852-102.787 165.993-48.811 248.277z" />
<glyph unicode="&#xe912;" d="M698.476 665.204l32.007-48.892c2.689-4.108 1.601-9.654-2.433-12.399l-8.116-5.524c-4.050-2.755-9.531-1.647-12.234 2.475l-32.047 48.88c-2.697 4.112-1.603 9.668 2.441 12.413l8.156 5.534c4.052 2.749 9.527 1.635 12.226-2.487z" />
<glyph unicode="&#xe913;" d="M747.859 589.821l32.111-48.862c2.711-4.126 1.603-9.709-2.469-12.443l-8.152-5.475c-4.044-2.718-9.489-1.601-12.182 2.495l-32.093 48.811c-2.703 4.11-1.617 9.67 2.429 12.419l8.132 5.526c4.046 2.749 9.519 1.643 12.224-2.471z" />
<glyph unicode="&#xe914;" d="M732.747 688.447l81.499-124.296c2.699-4.114 1.603-9.672-2.445-12.415l-8.188-5.546c-4.048-2.745-9.519-1.631-12.218 2.483l-81.527 124.288c-2.701 4.116-1.603 9.678 2.449 12.419l8.214 5.556c4.050 2.737 9.517 1.625 12.216-2.489z" />
<glyph unicode="&#xe915;" d="M766.924 711.654l32.077-48.988c2.703-4.126 1.593-9.697-2.477-12.429l-8.156-5.477c-4.048-2.718-9.495-1.601-12.186 2.503l-32.101 48.923c-2.701 4.114-1.605 9.674 2.443 12.417l8.182 5.542c4.046 2.745 9.519 1.631 12.218-2.491z" />
<glyph unicode="&#xe916;" d="M816.34 636.112l32.027-48.886c2.695-4.11 1.603-9.66-2.435-12.405l-8.134-5.526c-4.050-2.753-9.531-1.641-12.23 2.481l-32.027 48.886c-2.693 4.11-1.603 9.66 2.435 12.405l8.134 5.526c4.048 2.753 9.529 1.643 12.23-2.481z" />
<glyph unicode="&#xe917;" d="M264.925 371.485l81.489-124.162c2.699-4.112 1.609-9.67-2.439-12.415l-8.16-5.538c-4.048-2.747-9.519-1.637-12.222 2.479l-81.489 124.162c-2.699 4.112-1.609 9.67 2.439 12.415l8.16 5.538c4.048 2.747 9.521 1.635 12.222-2.479z" />
<glyph unicode="&#xe918;" d="M230.713 348.26l31.994-48.769c2.697-4.11 1.609-9.658-2.429-12.407l-8.116-5.522c-4.046-2.753-9.523-1.647-12.228 2.469l-32.031 48.756c-2.703 4.112-1.613 9.672 2.435 12.419l8.156 5.534c4.046 2.745 9.519 1.635 12.22-2.481z" />
<glyph unicode="&#xe919;" d="M280.155 272.85l32.029-48.892c2.695-4.11 1.603-9.662-2.439-12.405l-8.14-5.53c-4.050-2.751-9.525-1.641-12.228 2.477l-32.049 48.882c-2.697 4.112-1.603 9.668 2.439 12.413l8.16 5.538c4.052 2.751 9.527 1.637 12.228-2.483z" />
<glyph unicode="&#xe91a;" d="M196.5 325.043l81.437-124.168c2.697-4.11 1.605-9.664-2.433-12.411l-8.138-5.53c-4.048-2.751-9.523-1.643-12.226 2.475l-81.485 124.152c-2.701 4.114-1.605 9.674 2.443 12.419l8.188 5.546c4.044 2.743 9.515 1.631 12.214-2.483z" />
<glyph unicode="&#xe91b;" d="M242.115 540.951l81.477 124.263c2.701 4.118 8.174 5.23 12.224 2.483l8.158-5.536c4.046-2.745 5.136-8.303 2.439-12.415l-81.509-124.194c-2.695-4.104-8.146-5.219-12.192-2.497l-8.126 5.467c-4.068 2.734-5.174 8.307-2.471 12.429z" />
<glyph unicode="&#xe91c;" d="M207.888 564.143l81.491 124.288c2.701 4.118 8.178 5.23 12.228 2.479l8.138-5.53c4.040-2.745 5.13-8.295 2.435-12.407l-81.469-124.294c-2.701-4.118-8.174-5.232-12.224-2.483l-8.16 5.536c-4.044 2.743-5.136 8.299-2.439 12.411z" />
<glyph unicode="&#xe91d;" d="M173.641 587.236l81.499 124.411c2.701 4.12 8.18 5.234 12.23 2.483l8.138-5.53c4.040-2.745 5.13-8.291 2.439-12.403l-81.449-124.43c-2.697-4.12-8.172-5.236-12.222-2.491l-8.188 5.546c-4.046 2.743-5.14 8.299-2.447 12.413z" />
<glyph unicode="&#xe91e;" d="M675.666 247.323l32.031 48.756c2.705 4.116 8.182 5.222 12.228 2.469l8.116-5.524c4.038-2.747 5.124-8.297 2.429-12.407l-31.994-48.767c-2.701-4.116-8.174-5.228-12.222-2.481l-8.156 5.534c-4.046 2.747-5.136 8.305-2.433 12.419z" />
<glyph unicode="&#xe91f;" d="M725.070 322.477l32.083 48.998c2.699 4.118 8.172 5.234 12.222 2.489l8.176-5.538c4.050-2.745 5.144-8.309 2.441-12.423l-32.151-48.921c-2.697-4.104-8.148-5.215-12.194-2.489l-8.108 5.461c-4.062 2.737-5.168 8.303-2.469 12.423z" />
<glyph unicode="&#xe920;" d="M709.866 223.976l32.051 48.884c2.699 4.116 8.17 5.23 12.22 2.485l8.192-5.552c4.046-2.743 5.14-8.297 2.445-12.413l-32.031-48.888c-2.697-4.116-8.164-5.232-12.216-2.491l-8.214 5.556c-4.048 2.741-5.146 8.303-2.447 12.419z" />
<glyph unicode="&#xe921;" d="M759.323 299.51l32.069 48.771c2.703 4.108 8.168 5.215 12.214 2.475l8.188-5.546c4.050-2.745 5.144-8.309 2.437-12.423l-32.067-48.771c-2.701-4.108-8.168-5.215-12.212-2.475l-8.19 5.546c-4.054 2.741-5.146 8.307-2.439 12.423z" />
<glyph unicode="&#xe922;" d="M744.089 200.885l32.087 48.799c2.695 4.096 8.138 5.211 12.182 2.495l8.156-5.477c4.070-2.734 5.18-8.311 2.473-12.437l-32.063-48.864c-2.699-4.114-8.17-5.224-12.218-2.483l-8.182 5.542c-4.050 2.747-5.142 8.311-2.435 12.425z" />
<glyph unicode="&#xe923;" d="M793.558 276.169l32.007 48.858c2.701 4.12 8.18 5.234 12.23 2.481l8.128-5.522c4.042-2.747 5.13-8.303 2.431-12.413l-32.035-48.793c-2.693-4.106-8.15-5.219-12.196-2.493l-8.104 5.457c-4.058 2.734-5.162 8.303-2.461 12.425z" />
<glyph unicode="&#xe924;" d="M1004.382 108.296h-986.761c-9.731 0-17.622 8.019-17.622 17.908v644.662c0 9.889 7.891 17.908 17.622 17.908h986.763c9.731 0 17.622-8.019 17.622-17.908v-644.662c-0.002-9.891-7.893-17.908-17.624-17.908z" />
<glyph unicode="&#xe925;" d="M1022.006 736.427h-1022.006v34.439c0 9.889 7.891 17.908 17.622 17.908h986.763c9.731 0 17.622-8.019 17.622-17.908v-34.439z" />
<glyph unicode="&#xe926;" d="M0 579.396h1022.004v-52.345h-1022.004v52.345z" />
<glyph unicode="&#xe927;" d="M0 684.090h1022.004v-52.345h-1022.004v52.345z" />
<glyph unicode="&#xe928;" d="M1022.004 422.361h-1004.382c-9.731 0-17.622 8.019-17.622 17.908v34.439h1022.004v-52.347z" />
<glyph unicode="&#xe929;" d="M0 265.314h1022.004v-52.345h-1022.004v52.345z" />
<glyph unicode="&#xe92a;" d="M1004.382 108.296h-986.761c-9.731 0-17.622 8.019-17.622 17.908v34.437h1022.004v-34.439c0-9.889-7.891-17.906-17.622-17.906z" />
<glyph unicode="&#xe92b;" d="M0 370.008h1022.004v-52.345h-1022.004v52.345z" />
<glyph unicode="&#xe92c;" d="M458.139 788.771h-440.518c-9.731 0-17.622-8.017-17.622-17.906v-330.594c0-9.889 7.891-17.908 17.622-17.908h440.52c9.731 0 17.622 8.019 17.622 17.908v330.594c-0.002 9.889-7.893 17.906-17.624 17.906z" />
<glyph unicode="&#xe92d;" d="M49.481 747.671l3.9-11.887 12.33-0.095c1.597-0.014 2.258-2.083 0.974-3.047l-9.919-7.445 3.721-11.946c0.483-1.546-1.252-2.828-2.551-1.883l-10.030 7.285-10.030-7.287c-1.299-0.943-3.030 0.337-2.551 1.883l3.721 11.946-9.919 7.445c-1.283 0.966-0.623 3.033 0.974 3.047l12.33 0.095 3.9 11.887c0.503 1.542 2.643 1.542 3.15 0.002z" />
<glyph unicode="&#xe92e;" d="M49.481 685.487l3.9-11.887 12.33-0.095c1.597-0.014 2.258-2.083 0.974-3.047l-9.919-7.445 3.721-11.946c0.483-1.546-1.252-2.828-2.551-1.883l-10.030 7.285-10.030-7.287c-1.299-0.943-3.030 0.337-2.551 1.883l3.721 11.946-9.919 7.445c-1.283 0.966-0.623 3.033 0.974 3.047l12.33 0.095 3.9 11.887c0.503 1.54 2.643 1.54 3.15 0.002z" />
<glyph unicode="&#xe92f;" d="M49.481 623.304l3.9-11.887 12.33-0.095c1.597-0.014 2.258-2.083 0.974-3.047l-9.919-7.445 3.721-11.946c0.483-1.546-1.252-2.828-2.551-1.883l-10.030 7.285-10.030-7.287c-1.299-0.943-3.030 0.337-2.551 1.883l3.721 11.946-9.919 7.445c-1.283 0.966-0.623 3.033 0.974 3.047l12.33 0.095 3.9 11.887c0.503 1.54 2.643 1.54 3.15 0.002z" />
<glyph unicode="&#xe930;" d="M49.481 561.119l3.9-11.887 12.33-0.095c1.597-0.014 2.258-2.083 0.974-3.047l-9.919-7.445 3.721-11.946c0.483-1.546-1.252-2.828-2.551-1.883l-10.030 7.285-10.030-7.287c-1.299-0.943-3.030 0.337-2.551 1.883l3.721 11.946-9.919 7.445c-1.283 0.966-0.623 3.033 0.974 3.047l12.33 0.095 3.9 11.887c0.503 1.542 2.643 1.542 3.15 0.002z" />
<glyph unicode="&#xe931;" d="M49.481 498.935l3.9-11.887 12.33-0.095c1.597-0.014 2.258-2.083 0.974-3.047l-9.919-7.445 3.721-11.946c0.483-1.546-1.252-2.828-2.551-1.883l-10.030 7.285-10.030-7.287c-1.299-0.943-3.030 0.337-2.551 1.883l3.721 11.946-9.919 7.445c-1.283 0.966-0.623 3.033 0.974 3.047l12.33 0.095 3.9 11.887c0.503 1.544 2.643 1.544 3.15 0.002z" />
<glyph unicode="&#xe932;" d="M96.975 717.184l3.9-11.887 12.33-0.095c1.597-0.014 2.258-2.083 0.974-3.047l-9.919-7.445 3.721-11.946c0.483-1.546-1.252-2.828-2.551-1.883l-10.030 7.287-10.030-7.287c-1.299-0.943-3.030 0.337-2.551 1.883l3.721 11.946-9.919 7.445c-1.283 0.966-0.623 3.033 0.974 3.047l12.33 0.095 3.9 11.887c0.501 1.538 2.645 1.538 3.15 0z" />
<glyph unicode="&#xe933;" d="M96.975 654.998l3.9-11.887 12.33-0.095c1.597-0.014 2.258-2.083 0.974-3.047l-9.919-7.445 3.721-11.946c0.483-1.546-1.252-2.828-2.551-1.883l-10.030 7.287-10.030-7.287c-1.299-0.943-3.030 0.335-2.551 1.883l3.721 11.946-9.919 7.445c-1.283 0.966-0.623 3.033 0.974 3.047l12.33 0.095 3.9 11.887c0.501 1.54 2.645 1.54 3.15 0z" />
<glyph unicode="&#xe934;" d="M96.975 592.815l3.9-11.887 12.33-0.095c1.597-0.014 2.258-2.083 0.974-3.047l-9.919-7.445 3.721-11.946c0.483-1.546-1.252-2.828-2.551-1.883l-10.030 7.287-10.030-7.287c-1.299-0.943-3.030 0.337-2.551 1.883l3.721 11.946-9.919 7.445c-1.283 0.966-0.623 3.033 0.974 3.047l12.33 0.095 3.9 11.887c0.501 1.54 2.645 1.54 3.15 0z" />
<glyph unicode="&#xe935;" d="M96.975 530.631l3.9-11.887 12.33-0.095c1.597-0.014 2.258-2.083 0.974-3.047l-9.919-7.445 3.721-11.946c0.483-1.546-1.252-2.828-2.551-1.883l-10.030 7.287-10.030-7.287c-1.299-0.943-3.030 0.337-2.551 1.883l3.721 11.946-9.919 7.445c-1.283 0.966-0.623 3.033 0.974 3.047l12.33 0.095 3.9 11.887c0.501 1.538 2.645 1.538 3.15 0z" />
<glyph unicode="&#xe936;" d="M144.468 747.671l3.9-11.887 12.33-0.095c1.597-0.014 2.258-2.083 0.974-3.047l-9.919-7.445 3.721-11.946c0.483-1.546-1.252-2.828-2.551-1.883l-10.030 7.287-10.030-7.287c-1.299-0.943-3.030 0.337-2.551 1.883l3.721 11.946-9.919 7.445c-1.283 0.966-0.623 3.033 0.974 3.047l12.33 0.095 3.9 11.887c0.503 1.54 2.645 1.54 3.15 0z" />
<glyph unicode="&#xe937;" d="M144.468 685.487l3.9-11.887 12.33-0.095c1.597-0.014 2.258-2.083 0.974-3.047l-9.919-7.445 3.721-11.946c0.483-1.546-1.252-2.828-2.551-1.883l-10.030 7.287-10.030-7.287c-1.299-0.943-3.030 0.337-2.551 1.883l3.721 11.946-9.919 7.445c-1.283 0.966-0.623 3.033 0.974 3.047l12.33 0.095 3.9 11.887c0.503 1.538 2.645 1.538 3.15 0z" />
<glyph unicode="&#xe938;" d="M144.468 623.304l3.9-11.887 12.33-0.095c1.597-0.014 2.258-2.083 0.974-3.047l-9.919-7.445 3.721-11.946c0.483-1.546-1.252-2.828-2.551-1.883l-10.030 7.287-10.030-7.287c-1.299-0.943-3.030 0.337-2.551 1.883l3.721 11.946-9.919 7.445c-1.283 0.966-0.623 3.033 0.974 3.047l12.33 0.095 3.9 11.887c0.503 1.538 2.645 1.538 3.15 0z" />
<glyph unicode="&#xe939;" d="M144.468 561.119l3.9-11.887 12.33-0.095c1.597-0.014 2.258-2.083 0.974-3.047l-9.919-7.445 3.721-11.946c0.483-1.546-1.252-2.828-2.551-1.883l-10.030 7.287-10.030-7.287c-1.299-0.943-3.030 0.337-2.551 1.883l3.721 11.946-9.919 7.445c-1.283 0.966-0.623 3.033 0.974 3.047l12.33 0.095 3.9 11.887c0.503 1.54 2.645 1.54 3.15 0z" />
<glyph unicode="&#xe93a;" d="M144.468 498.935l3.9-11.887 12.33-0.095c1.597-0.014 2.258-2.083 0.974-3.047l-9.919-7.445 3.721-11.946c0.483-1.546-1.252-2.828-2.551-1.883l-10.030 7.287-10.030-7.287c-1.299-0.943-3.030 0.337-2.551 1.883l3.721 11.946-9.919 7.445c-1.283 0.966-0.623 3.033 0.974 3.047l12.33 0.095 3.9 11.887c0.503 1.542 2.645 1.542 3.15 0z" />
<glyph unicode="&#xe93b;" d="M191.963 717.184l3.9-11.887 12.33-0.095c1.597-0.014 2.258-2.083 0.974-3.047l-9.919-7.445 3.721-11.946c0.483-1.546-1.252-2.828-2.551-1.883l-10.030 7.287-10.030-7.287c-1.299-0.943-3.030 0.337-2.551 1.883l3.721 11.946-9.919 7.445c-1.283 0.966-0.623 3.033 0.974 3.047l12.33 0.095 3.9 11.887c0.501 1.538 2.645 1.538 3.15 0z" />
<glyph unicode="&#xe93c;" d="M191.963 654.998l3.9-11.887 12.33-0.095c1.597-0.014 2.258-2.083 0.974-3.047l-9.919-7.445 3.721-11.946c0.483-1.546-1.252-2.828-2.551-1.883l-10.030 7.287-10.030-7.287c-1.299-0.943-3.030 0.335-2.551 1.883l3.721 11.946-9.919 7.445c-1.283 0.966-0.623 3.033 0.974 3.047l12.33 0.095 3.9 11.887c0.501 1.54 2.645 1.54 3.15 0z" />
<glyph unicode="&#xe93d;" d="M191.963 592.815l3.9-11.887 12.33-0.095c1.597-0.014 2.258-2.083 0.974-3.047l-9.919-7.445 3.721-11.946c0.483-1.546-1.252-2.828-2.551-1.883l-10.030 7.287-10.030-7.287c-1.299-0.943-3.030 0.337-2.551 1.883l3.721 11.946-9.919 7.445c-1.283 0.966-0.623 3.033 0.974 3.047l12.33 0.095 3.9 11.887c0.501 1.54 2.645 1.54 3.15 0z" />
<glyph unicode="&#xe93e;" d="M191.963 530.631l3.9-11.887 12.33-0.095c1.597-0.014 2.258-2.083 0.974-3.047l-9.919-7.445 3.721-11.946c0.483-1.546-1.252-2.828-2.551-1.883l-10.030 7.287-10.030-7.287c-1.299-0.943-3.030 0.337-2.551 1.883l3.721 11.946-9.919 7.445c-1.283 0.966-0.623 3.033 0.974 3.047l12.33 0.095 3.9 11.887c0.501 1.538 2.645 1.538 3.15 0z" />
<glyph unicode="&#xe93f;" d="M239.456 747.671l3.9-11.887 12.33-0.095c1.597-0.014 2.258-2.083 0.974-3.047l-9.919-7.445 3.721-11.946c0.483-1.546-1.252-2.828-2.551-1.883l-10.032 7.287-10.030-7.287c-1.299-0.943-3.030 0.337-2.551 1.883l3.721 11.946-9.919 7.445c-1.283 0.966-0.623 3.033 0.974 3.047l12.33 0.095 3.9 11.887c0.505 1.54 2.647 1.54 3.152 0z" />
<glyph unicode="&#xe940;" d="M239.456 685.487l3.9-11.887 12.33-0.095c1.597-0.014 2.258-2.083 0.974-3.047l-9.919-7.445 3.721-11.946c0.483-1.546-1.252-2.828-2.551-1.883l-10.032 7.287-10.030-7.287c-1.299-0.943-3.030 0.337-2.551 1.883l3.721 11.946-9.919 7.445c-1.283 0.966-0.623 3.033 0.974 3.047l12.33 0.095 3.9 11.887c0.505 1.538 2.647 1.538 3.152 0z" />
<glyph unicode="&#xe941;" d="M239.456 623.304l3.9-11.887 12.33-0.095c1.597-0.014 2.258-2.083 0.974-3.047l-9.919-7.445 3.721-11.946c0.483-1.546-1.252-2.828-2.551-1.883l-10.032 7.287-10.030-7.287c-1.299-0.943-3.030 0.337-2.551 1.883l3.721 11.946-9.919 7.445c-1.283 0.966-0.623 3.033 0.974 3.047l12.33 0.095 3.9 11.887c0.505 1.538 2.647 1.538 3.152 0z" />
<glyph unicode="&#xe942;" d="M239.456 561.119l3.9-11.887 12.33-0.095c1.597-0.014 2.258-2.083 0.974-3.047l-9.919-7.445 3.721-11.946c0.483-1.546-1.252-2.828-2.551-1.883l-10.032 7.287-10.030-7.287c-1.299-0.943-3.030 0.337-2.551 1.883l3.721 11.946-9.919 7.445c-1.283 0.966-0.623 3.033 0.974 3.047l12.33 0.095 3.9 11.887c0.505 1.54 2.647 1.54 3.152 0z" />
<glyph unicode="&#xe943;" d="M239.456 498.935l3.9-11.887 12.33-0.095c1.597-0.014 2.258-2.083 0.974-3.047l-9.919-7.445 3.721-11.946c0.483-1.546-1.252-2.828-2.551-1.883l-10.032 7.287-10.030-7.287c-1.299-0.943-3.030 0.337-2.551 1.883l3.721 11.946-9.919 7.445c-1.283 0.966-0.623 3.033 0.974 3.047l12.33 0.095 3.9 11.887c0.505 1.542 2.647 1.542 3.152 0z" />
<glyph unicode="&#xe944;" d="M286.95 717.184l3.9-11.887 12.33-0.095c1.597-0.014 2.258-2.083 0.974-3.047l-9.919-7.445 3.721-11.946c0.483-1.546-1.252-2.828-2.551-1.883l-10.030 7.287-10.030-7.287c-1.299-0.943-3.030 0.337-2.551 1.883l3.721 11.946-9.919 7.445c-1.283 0.966-0.623 3.033 0.974 3.047l12.33 0.095 3.9 11.887c0.505 1.538 2.645 1.538 3.15 0z" />
<glyph unicode="&#xe945;" d="M286.95 654.998l3.9-11.887 12.33-0.095c1.597-0.014 2.258-2.083 0.974-3.047l-9.919-7.445 3.721-11.946c0.483-1.546-1.252-2.828-2.551-1.883l-10.030 7.287-10.030-7.287c-1.299-0.943-3.030 0.335-2.551 1.883l3.721 11.946-9.919 7.445c-1.283 0.966-0.623 3.033 0.974 3.047l12.33 0.095 3.9 11.887c0.505 1.54 2.645 1.54 3.15 0z" />
<glyph unicode="&#xe946;" d="M286.95 592.815l3.9-11.887 12.33-0.095c1.597-0.014 2.258-2.083 0.974-3.047l-9.919-7.445 3.721-11.946c0.483-1.546-1.252-2.828-2.551-1.883l-10.030 7.287-10.030-7.287c-1.299-0.943-3.030 0.337-2.551 1.883l3.721 11.946-9.919 7.445c-1.283 0.966-0.623 3.033 0.974 3.047l12.33 0.095 3.9 11.887c0.505 1.54 2.645 1.54 3.15 0z" />
<glyph unicode="&#xe947;" d="M286.95 530.631l3.9-11.887 12.33-0.095c1.597-0.014 2.258-2.083 0.974-3.047l-9.919-7.445 3.721-11.946c0.483-1.546-1.252-2.828-2.551-1.883l-10.030 7.287-10.030-7.287c-1.299-0.943-3.030 0.337-2.551 1.883l3.721 11.946-9.919 7.445c-1.283 0.966-0.623 3.033 0.974 3.047l12.33 0.095 3.9 11.887c0.505 1.538 2.645 1.538 3.15 0z" />
<glyph unicode="&#xe948;" d="M334.445 747.671l3.9-11.887 12.33-0.095c1.597-0.014 2.258-2.083 0.974-3.047l-9.919-7.445 3.721-11.946c0.483-1.546-1.252-2.828-2.551-1.883l-10.030 7.287-10.030-7.287c-1.299-0.943-3.030 0.337-2.551 1.883l3.721 11.946-9.919 7.445c-1.283 0.966-0.623 3.033 0.974 3.047l12.33 0.095 3.9 11.887c0.501 1.54 2.645 1.54 3.15 0z" />
<glyph unicode="&#xe949;" d="M334.445 685.487l3.9-11.887 12.33-0.095c1.597-0.014 2.258-2.083 0.974-3.047l-9.919-7.445 3.721-11.946c0.483-1.546-1.252-2.828-2.551-1.883l-10.030 7.287-10.030-7.287c-1.299-0.943-3.030 0.337-2.551 1.883l3.721 11.946-9.919 7.445c-1.283 0.966-0.623 3.033 0.974 3.047l12.33 0.095 3.9 11.887c0.501 1.538 2.645 1.538 3.15 0z" />
<glyph unicode="&#xe94a;" d="M334.445 623.304l3.9-11.887 12.33-0.095c1.597-0.014 2.258-2.083 0.974-3.047l-9.919-7.445 3.721-11.946c0.483-1.546-1.252-2.828-2.551-1.883l-10.030 7.287-10.030-7.287c-1.299-0.943-3.030 0.337-2.551 1.883l3.721 11.946-9.919 7.445c-1.283 0.966-0.623 3.033 0.974 3.047l12.33 0.095 3.9 11.887c0.501 1.538 2.645 1.538 3.15 0z" />
<glyph unicode="&#xe94b;" d="M334.445 561.119l3.9-11.887 12.33-0.095c1.597-0.014 2.258-2.083 0.974-3.047l-9.919-7.445 3.721-11.946c0.483-1.546-1.252-2.828-2.551-1.883l-10.030 7.287-10.030-7.287c-1.299-0.943-3.030 0.337-2.551 1.883l3.721 11.946-9.919 7.445c-1.283 0.966-0.623 3.033 0.974 3.047l12.33 0.095 3.9 11.887c0.501 1.54 2.645 1.54 3.15 0z" />
<glyph unicode="&#xe94c;" d="M334.445 498.935l3.9-11.887 12.33-0.095c1.597-0.014 2.258-2.083 0.974-3.047l-9.919-7.445 3.721-11.946c0.483-1.546-1.252-2.828-2.551-1.883l-10.030 7.287-10.030-7.287c-1.299-0.943-3.030 0.337-2.551 1.883l3.721 11.946-9.919 7.445c-1.283 0.966-0.623 3.033 0.974 3.047l12.33 0.095 3.9 11.887c0.501 1.542 2.645 1.542 3.15 0z" />
<glyph unicode="&#xe94d;" d="M381.938 717.184l3.9-11.887 12.33-0.095c1.597-0.014 2.258-2.083 0.974-3.047l-9.919-7.445 3.721-11.946c0.483-1.546-1.252-2.828-2.551-1.883l-10.030 7.287-10.030-7.287c-1.299-0.943-3.030 0.337-2.551 1.883l3.721 11.946-9.919 7.445c-1.283 0.966-0.623 3.033 0.974 3.047l12.33 0.095 3.9 11.887c0.503 1.538 2.647 1.538 3.15 0z" />
<glyph unicode="&#xe94e;" d="M381.938 654.998l3.9-11.887 12.33-0.095c1.597-0.014 2.258-2.083 0.974-3.047l-9.919-7.445 3.721-11.946c0.483-1.546-1.252-2.828-2.551-1.883l-10.030 7.287-10.030-7.287c-1.299-0.943-3.030 0.335-2.551 1.883l3.721 11.946-9.919 7.445c-1.283 0.966-0.623 3.033 0.974 3.047l12.33 0.095 3.9 11.887c0.503 1.54 2.647 1.54 3.15 0z" />
<glyph unicode="&#xe94f;" d="M381.938 592.815l3.9-11.887 12.33-0.095c1.597-0.014 2.258-2.083 0.974-3.047l-9.919-7.445 3.721-11.946c0.483-1.546-1.252-2.828-2.551-1.883l-10.030 7.287-10.030-7.287c-1.299-0.943-3.030 0.337-2.551 1.883l3.721 11.946-9.919 7.445c-1.283 0.966-0.623 3.033 0.974 3.047l12.33 0.095 3.9 11.887c0.503 1.54 2.647 1.54 3.15 0z" />
<glyph unicode="&#xe950;" d="M381.938 530.631l3.9-11.887 12.33-0.095c1.597-0.014 2.258-2.083 0.974-3.047l-9.919-7.445 3.721-11.946c0.483-1.546-1.252-2.828-2.551-1.883l-10.030 7.287-10.030-7.287c-1.299-0.943-3.030 0.337-2.551 1.883l3.721 11.946-9.919 7.445c-1.283 0.966-0.623 3.033 0.974 3.047l12.33 0.095 3.9 11.887c0.503 1.538 2.647 1.538 3.15 0z" />
<glyph unicode="&#xe951;" d="M429.433 747.671l3.9-11.887 12.33-0.095c1.597-0.014 2.258-2.083 0.974-3.047l-9.919-7.445 3.721-11.946c0.483-1.546-1.252-2.828-2.551-1.883l-10.030 7.287-10.030-7.287c-1.299-0.943-3.030 0.337-2.551 1.883l3.721 11.946-9.919 7.445c-1.283 0.966-0.623 3.033 0.974 3.047l12.33 0.095 3.9 11.887c0.503 1.54 2.643 1.54 3.15 0z" />
<glyph unicode="&#xe952;" d="M429.433 685.487l3.9-11.887 12.33-0.095c1.597-0.014 2.258-2.083 0.974-3.047l-9.919-7.445 3.721-11.946c0.483-1.546-1.252-2.828-2.551-1.883l-10.030 7.287-10.030-7.287c-1.299-0.943-3.030 0.337-2.551 1.883l3.721 11.946-9.919 7.445c-1.283 0.966-0.623 3.033 0.974 3.047l12.33 0.095 3.9 11.887c0.503 1.538 2.643 1.538 3.15 0z" />
<glyph unicode="&#xe953;" d="M429.433 623.304l3.9-11.887 12.33-0.095c1.597-0.014 2.258-2.083 0.974-3.047l-9.919-7.445 3.721-11.946c0.483-1.546-1.252-2.828-2.551-1.883l-10.030 7.287-10.030-7.287c-1.299-0.943-3.030 0.337-2.551 1.883l3.721 11.946-9.919 7.445c-1.283 0.966-0.623 3.033 0.974 3.047l12.33 0.095 3.9 11.887c0.503 1.538 2.643 1.538 3.15 0z" />
<glyph unicode="&#xe954;" d="M429.433 561.119l3.9-11.887 12.33-0.095c1.597-0.014 2.258-2.083 0.974-3.047l-9.919-7.445 3.721-11.946c0.483-1.546-1.252-2.828-2.551-1.883l-10.030 7.287-10.030-7.287c-1.299-0.943-3.030 0.337-2.551 1.883l3.721 11.946-9.919 7.445c-1.283 0.966-0.623 3.033 0.974 3.047l12.33 0.095 3.9 11.887c0.503 1.54 2.643 1.54 3.15 0z" />
<glyph unicode="&#xe955;" d="M429.433 498.935l3.9-11.887 12.33-0.095c1.597-0.014 2.258-2.083 0.974-3.047l-9.919-7.445 3.721-11.946c0.483-1.546-1.252-2.828-2.551-1.883l-10.030 7.287-10.030-7.287c-1.299-0.943-3.030 0.337-2.551 1.883l3.721 11.946-9.919 7.445c-1.283 0.966-0.623 3.033 0.974 3.047l12.33 0.095 3.9 11.887c0.503 1.542 2.643 1.542 3.15 0z" />
<glyph unicode="&#xe956;" d="M1004.382 119.192h-986.761c-9.731 0-17.622 7.891-17.622 17.622v634.347c0 9.731 7.891 17.622 17.622 17.622h986.763c9.731 0 17.622-7.891 17.622-17.622v-634.347c-0.002-9.733-7.893-17.622-17.624-17.622z" />
<glyph unicode="&#xe957;" d="M704.823 453.986c0-107.045-86.777-193.821-193.821-193.821s-193.821 86.777-193.821 193.821c0 107.045 86.777 193.821 193.821 193.821s193.821-86.777 193.821-193.821z" />
</font>
</defs>
</svg>
